<svg width="53" height="50" viewBox="0 0 53 50" fill="none" xmlns="http://www.w3.org/2000/svg">
<path d="M19.755 44.4487C19.755 47.1749 17.5424 49.3875 14.8163 49.3875C12.0901 49.3875 9.8775 47.1749 9.8775 44.4487C9.8775 41.7226 12.0901 39.51 14.8163 39.51C17.5424 39.51 19.755 41.7226 19.755 44.4487Z" fill="black"/>
<path d="M52.68 44.4487C52.68 47.1749 50.4674 49.3875 47.7413 49.3875C45.0151 49.3875 42.8025 47.1749 42.8025 44.4487C42.8025 41.7226 45.0151 39.51 47.7413 39.51C50.4674 39.51 52.68 41.7226 52.68 44.4487Z" fill="black"/>
<path d="M52.68 23.0475V3.2925H13.17C13.17 1.47504 11.695 0 9.8775 0H0V3.2925H6.585L9.05767 24.4896C7.5497 25.698 6.585 27.5516 6.585 29.6325C6.585 33.2707 9.53179 36.2175 13.17 36.2175H52.68V32.925H13.17C11.3525 32.925 9.8775 31.45 9.8775 29.6325C9.8775 29.6226 9.8775 29.6094 9.8775 29.5996L52.68 23.0475Z" fill="black"/>
</svg>
