<svg width="357" height="246" viewBox="0 0 357 246" fill="none" xmlns="http://www.w3.org/2000/svg">
<path d="M86.8897 84.5453L76.0475 73.7031V59.17H82.6325V70.9769L91.5453 79.8897L86.8897 84.5453ZM79.34 46C64.7937 46 53 57.7937 53 72.34C53 86.8863 64.7937 98.68 79.34 98.68C93.8863 98.68 105.68 86.8863 105.68 72.34C105.68 57.7937 93.8863 46 79.34 46ZM79.34 92.095C68.4287 92.095 59.585 83.2513 59.585 72.34C59.585 61.4287 68.4287 52.585 79.34 52.585C90.2513 52.585 99.095 61.4287 99.095 72.34C99.095 83.2513 90.2513 92.095 79.34 92.095Z" fill="black"/>
<path d="M152 167.25H170.4V183H152V167.25ZM179.6 167.25H198V183H179.6V167.25ZM207.2 167.25H225.6V183H207.2V167.25ZM124.4 214.5H142.8V230.25H124.4V214.5ZM152 214.5H170.4V230.25H152V214.5ZM179.6 214.5H198V230.25H179.6V214.5ZM152 190.875H170.4V206.625H152V190.875ZM179.6 190.875H198V206.625H179.6V190.875ZM207.2 190.875H225.6V206.625H207.2V190.875ZM124.4 190.875H142.8V206.625H124.4V190.875ZM225.6 120V127.875H207.2V120H142.8V127.875H124.4V120H106V246H244V120H225.6ZM234.8 238.125H115.2V151.5H234.8V238.125Z" fill="black"/>
<path d="M263.755 84.4487C263.755 87.1749 261.542 89.3875 258.816 89.3875C256.09 89.3875 253.878 87.1749 253.878 84.4487C253.878 81.7226 256.09 79.51 258.816 79.51C261.542 79.51 263.755 81.7226 263.755 84.4487Z" fill="black"/>
<path d="M296.68 84.4487C296.68 87.1749 294.467 89.3875 291.741 89.3875C289.015 89.3875 286.803 87.1749 286.803 84.4487C286.803 81.7226 289.015 79.51 291.741 79.51C294.467 79.51 296.68 81.7226 296.68 84.4487Z" fill="black"/>
<path d="M296.68 63.0475V43.2925H257.17C257.17 41.475 255.695 40 253.878 40H244V43.2925H250.585L253.058 64.4896C251.55 65.698 250.585 67.5516 250.585 69.6325C250.585 73.2707 253.532 76.2175 257.17 76.2175H296.68V72.925H257.17C255.353 72.925 253.878 71.45 253.878 69.6325C253.878 69.6226 253.878 69.6094 253.878 69.5996L296.68 63.0475Z" fill="black"/>
<path d="M196.741 0H153.939C151.222 0 149 2.22244 149 4.93875V34.5712C149 37.2876 151.222 39.51 153.939 39.51H196.741C199.458 39.51 201.68 37.2876 201.68 34.5712V4.93875C201.68 2.22244 199.458 0 196.741 0ZM153.939 3.2925H196.741C197.634 3.2925 198.388 4.04648 198.388 4.93875V9.8775H152.293V4.93875C152.293 4.04648 153.046 3.2925 153.939 3.2925ZM196.741 36.2175H153.939C153.046 36.2175 152.293 35.4635 152.293 34.5712V19.755H198.388V34.5712C198.388 35.4635 197.634 36.2175 196.741 36.2175ZM155.585 26.34H158.878V32.925H155.585V26.34ZM162.17 26.34H165.462V32.925H162.17V26.34ZM168.755 26.34H172.048V32.925H168.755V26.34Z" fill="black"/>
<path d="M0 178.217H52.68V184.803H0V178.217ZM6.585 165.048H13.17V174.925H6.585V165.048ZM16.4625 151.878H23.0475V174.925H16.4625V151.878ZM26.34 161.755H32.925V174.925H26.34V161.755ZM36.2175 142H42.8025V174.925H36.2175V142Z" fill="black"/>
<path d="M348.756 139H297V178.813H348.756V139ZM344.775 174.831H300.981V142.981H344.775V174.831Z" fill="black"/>
<path d="M352.738 148.953V182.794H306.953V186.775H356.719V148.953H352.738Z" fill="black"/>
<path d="M322.878 168.668C327.817 168.668 331.836 164.296 331.836 158.923C331.836 153.55 327.817 149.178 322.878 149.178C317.939 149.178 313.92 153.549 313.92 158.923C313.92 164.296 317.939 168.668 322.878 168.668ZM322.878 153.159C325.622 153.159 327.855 155.745 327.855 158.923C327.855 162.101 325.622 164.687 322.878 164.687C320.134 164.687 317.902 162.101 317.902 158.923C317.902 155.745 320.134 153.159 322.878 153.159Z" fill="black"/>
<path d="M308.944 147.958H304.962V169.855H308.944V147.958Z" fill="black"/>
<path d="M340.794 147.958H336.812V169.855H340.794V147.958Z" fill="black"/>
</svg>
